<?xml version="1.0" encoding="UTF-8" standalone="no"?>
<!DOCTYPE svg PUBLIC "-//W3C//DTD SVG 1.1//EN"
 "http://www.w3.org/Graphics/SVG/1.1/DTD/svg11.dtd">
<!-- Generated by graphviz version 2.43.0 (0)
 -->
<!-- Title: snakemake_dag Pages: 1 -->
<svg width="176pt" height="780pt"
 viewBox="0.00 0.00 175.50 780.00" xmlns="http://www.w3.org/2000/svg" xmlns:xlink="http://www.w3.org/1999/xlink">
<g id="graph0" class="graph" transform="scale(1 1) rotate(0) translate(4 776)">
<title>snakemake_dag</title>
<polygon fill="white" stroke="transparent" points="-4,4 -4,-776 171.5,-776 171.5,4 -4,4"/>
<!-- 0 -->
<g id="node1" class="node">
<title>0</title>
<path fill="none" stroke="#d88d56" stroke-width="2" d="M70,-108C70,-108 40,-108 40,-108 34,-108 28,-102 28,-96 28,-96 28,-84 28,-84 28,-78 34,-72 40,-72 40,-72 70,-72 70,-72 76,-72 82,-78 82,-84 82,-84 82,-96 82,-96 82,-102 76,-108 70,-108"/>
<text text-anchor="middle" x="55" y="-87.5" font-family="sans" font-size="10.00">results</text>
</g>
<!-- 10 -->
<g id="node11" class="node">
<title>10</title>
<path fill="none" stroke="#d85656" stroke-width="2" d="M72.5,-36C72.5,-36 37.5,-36 37.5,-36 31.5,-36 25.5,-30 25.5,-24 25.5,-24 25.5,-12 25.5,-12 25.5,-6 31.5,0 37.5,0 37.5,0 72.5,0 72.5,0 78.5,0 84.5,-6 84.5,-12 84.5,-12 84.5,-24 84.5,-24 84.5,-30 78.5,-36 72.5,-36"/>
<text text-anchor="middle" x="55" y="-21" font-family="sans" font-size="10.00">OUTPUT:</text>
<text text-anchor="middle" x="55" y="-10" font-family="sans" font-size="10.00">SV bcf</text>
</g>
<!-- 0&#45;&gt;10 -->
<g id="edge2" class="edge">
<title>0&#45;&gt;10</title>
<path fill="none" stroke="grey" stroke-width="2" d="M55,-71.7C55,-63.98 55,-54.71 55,-46.11"/>
<polygon fill="grey" stroke="grey" stroke-width="2" points="58.5,-46.1 55,-36.1 51.5,-46.1 58.5,-46.1"/>
</g>
<!-- 1 -->
<g id="node2" class="node">
<title>1</title>
<path fill="none" stroke="#afd856" stroke-width="2" d="M74.5,-180C74.5,-180 35.5,-180 35.5,-180 29.5,-180 23.5,-174 23.5,-168 23.5,-168 23.5,-156 23.5,-156 23.5,-150 29.5,-144 35.5,-144 35.5,-144 74.5,-144 74.5,-144 80.5,-144 86.5,-150 86.5,-156 86.5,-156 86.5,-168 86.5,-168 86.5,-174 80.5,-180 74.5,-180"/>
<text text-anchor="middle" x="55" y="-159.5" font-family="sans" font-size="10.00">delly_call</text>
</g>
<!-- 1&#45;&gt;0 -->
<g id="edge3" class="edge">
<title>1&#45;&gt;0</title>
<path fill="none" stroke="grey" stroke-width="2" d="M55,-143.7C55,-135.98 55,-126.71 55,-118.11"/>
<polygon fill="grey" stroke="grey" stroke-width="2" points="58.5,-118.1 55,-108.1 51.5,-118.1 58.5,-118.1"/>
</g>
<!-- 2 -->
<g id="node3" class="node">
<title>2</title>
<path fill="none" stroke="#56d8a9" stroke-width="2" d="M98,-324C98,-324 12,-324 12,-324 6,-324 0,-318 0,-312 0,-312 0,-300 0,-300 0,-294 6,-288 12,-288 12,-288 98,-288 98,-288 104,-288 110,-294 110,-300 110,-300 110,-312 110,-312 110,-318 104,-324 98,-324"/>
<text text-anchor="middle" x="55" y="-303.5" font-family="sans" font-size="10.00">samtools_markdup</text>
</g>
<!-- 2&#45;&gt;1 -->
<g id="edge4" class="edge">
<title>2&#45;&gt;1</title>
<path fill="none" stroke="grey" stroke-width="2" d="M43.11,-287.72C36.99,-277.76 30.16,-264.73 27,-252 23.15,-236.47 23.15,-231.53 27,-216 29.29,-206.75 33.53,-197.34 38.02,-189.07"/>
<polygon fill="grey" stroke="grey" stroke-width="2" points="41.13,-190.68 43.11,-180.28 35.07,-187.17 41.13,-190.68"/>
</g>
<!-- 8 -->
<g id="node9" class="node">
<title>8</title>
<path fill="none" stroke="#70d856" stroke-width="2" d="M155.5,-252C155.5,-252 48.5,-252 48.5,-252 42.5,-252 36.5,-246 36.5,-240 36.5,-240 36.5,-228 36.5,-228 36.5,-222 42.5,-216 48.5,-216 48.5,-216 155.5,-216 155.5,-216 161.5,-216 167.5,-222 167.5,-228 167.5,-228 167.5,-240 167.5,-240 167.5,-246 161.5,-252 155.5,-252"/>
<text text-anchor="middle" x="102" y="-231.5" font-family="sans" font-size="10.00">samtools_index_rmdup</text>
</g>
<!-- 2&#45;&gt;8 -->
<g id="edge11" class="edge">
<title>2&#45;&gt;8</title>
<path fill="none" stroke="grey" stroke-width="2" d="M66.62,-287.7C72.14,-279.47 78.85,-269.48 84.93,-260.42"/>
<polygon fill="grey" stroke="grey" stroke-width="2" points="87.85,-262.36 90.52,-252.1 82.04,-258.46 87.85,-262.36"/>
</g>
<!-- 3 -->
<g id="node4" class="node">
<title>3</title>
<path fill="none" stroke="#d8cb56" stroke-width="2" d="M86,-396C86,-396 24,-396 24,-396 18,-396 12,-390 12,-384 12,-384 12,-372 12,-372 12,-366 18,-360 24,-360 24,-360 86,-360 86,-360 92,-360 98,-366 98,-372 98,-372 98,-384 98,-384 98,-390 92,-396 86,-396"/>
<text text-anchor="middle" x="55" y="-375.5" font-family="sans" font-size="10.00">samtools_sort</text>
</g>
<!-- 3&#45;&gt;2 -->
<g id="edge6" class="edge">
<title>3&#45;&gt;2</title>
<path fill="none" stroke="grey" stroke-width="2" d="M55,-359.7C55,-351.98 55,-342.71 55,-334.11"/>
<polygon fill="grey" stroke="grey" stroke-width="2" points="58.5,-334.1 55,-324.1 51.5,-334.1 58.5,-334.1"/>
</g>
<!-- 4 -->
<g id="node5" class="node">
<title>4</title>
<path fill="none" stroke="#5692d8" stroke-width="2" d="M95,-468C95,-468 15,-468 15,-468 9,-468 3,-462 3,-456 3,-456 3,-444 3,-444 3,-438 9,-432 15,-432 15,-432 95,-432 95,-432 101,-432 107,-438 107,-444 107,-444 107,-456 107,-456 107,-462 101,-468 95,-468"/>
<text text-anchor="middle" x="55" y="-447.5" font-family="sans" font-size="10.00">samtools_fixmate</text>
</g>
<!-- 4&#45;&gt;3 -->
<g id="edge7" class="edge">
<title>4&#45;&gt;3</title>
<path fill="none" stroke="grey" stroke-width="2" d="M55,-431.7C55,-423.98 55,-414.71 55,-406.11"/>
<polygon fill="grey" stroke="grey" stroke-width="2" points="58.5,-406.1 55,-396.1 51.5,-406.1 58.5,-406.1"/>
</g>
<!-- 5 -->
<g id="node6" class="node">
<title>5</title>
<path fill="none" stroke="#56d873" stroke-width="2" d="M87.5,-540C87.5,-540 22.5,-540 22.5,-540 16.5,-540 10.5,-534 10.5,-528 10.5,-528 10.5,-516 10.5,-516 10.5,-510 16.5,-504 22.5,-504 22.5,-504 87.5,-504 87.5,-504 93.5,-504 99.5,-510 99.5,-516 99.5,-516 99.5,-528 99.5,-528 99.5,-534 93.5,-540 87.5,-540"/>
<text text-anchor="middle" x="55" y="-519.5" font-family="sans" font-size="10.00">samtools_rsort</text>
</g>
<!-- 5&#45;&gt;4 -->
<g id="edge8" class="edge">
<title>5&#45;&gt;4</title>
<path fill="none" stroke="grey" stroke-width="2" d="M55,-503.7C55,-495.98 55,-486.71 55,-478.11"/>
<polygon fill="grey" stroke="grey" stroke-width="2" points="58.5,-478.1 55,-468.1 51.5,-478.1 58.5,-478.1"/>
</g>
<!-- 6 -->
<g id="node7" class="node">
<title>6</title>
<path fill="none" stroke="#56c9d8" stroke-width="2" d="M77,-612C77,-612 33,-612 33,-612 27,-612 21,-606 21,-600 21,-600 21,-588 21,-588 21,-582 27,-576 33,-576 33,-576 77,-576 77,-576 83,-576 89,-582 89,-588 89,-588 89,-600 89,-600 89,-606 83,-612 77,-612"/>
<text text-anchor="middle" x="55" y="-591.5" font-family="sans" font-size="10.00">bwa_mem</text>
</g>
<!-- 6&#45;&gt;5 -->
<g id="edge9" class="edge">
<title>6&#45;&gt;5</title>
<path fill="none" stroke="grey" stroke-width="2" d="M55,-575.7C55,-567.98 55,-558.71 55,-550.11"/>
<polygon fill="grey" stroke="grey" stroke-width="2" points="58.5,-550.1 55,-540.1 51.5,-550.1 58.5,-550.1"/>
</g>
<!-- 7 -->
<g id="node8" class="node">
<title>7</title>
<path fill="none" stroke="#d85656" stroke-width="2" d="M70,-684C70,-684 40,-684 40,-684 34,-684 28,-678 28,-672 28,-672 28,-660 28,-660 28,-654 34,-648 40,-648 40,-648 70,-648 70,-648 76,-648 82,-654 82,-660 82,-660 82,-672 82,-672 82,-678 76,-684 70,-684"/>
<text text-anchor="middle" x="55" y="-663.5" font-family="sans" font-size="10.00">fastp</text>
</g>
<!-- 7&#45;&gt;6 -->
<g id="edge10" class="edge">
<title>7&#45;&gt;6</title>
<path fill="none" stroke="grey" stroke-width="2" d="M55,-647.7C55,-639.98 55,-630.71 55,-622.11"/>
<polygon fill="grey" stroke="grey" stroke-width="2" points="58.5,-622.1 55,-612.1 51.5,-622.1 58.5,-622.1"/>
</g>
<!-- 8&#45;&gt;1 -->
<g id="edge5" class="edge">
<title>8&#45;&gt;1</title>
<path fill="none" stroke="grey" stroke-width="2" d="M90.38,-215.7C84.86,-207.47 78.15,-197.48 72.07,-188.42"/>
<polygon fill="grey" stroke="grey" stroke-width="2" points="74.96,-186.46 66.48,-180.1 69.15,-190.36 74.96,-186.46"/>
</g>
<!-- 9 -->
<g id="node10" class="node">
<title>9</title>
<path fill="none" stroke="#d85656" stroke-width="2" d="M80.5,-772C80.5,-772 29.5,-772 29.5,-772 23.5,-772 17.5,-766 17.5,-760 17.5,-760 17.5,-732 17.5,-732 17.5,-726 23.5,-720 29.5,-720 29.5,-720 80.5,-720 80.5,-720 86.5,-720 92.5,-726 92.5,-732 92.5,-732 92.5,-760 92.5,-760 92.5,-766 86.5,-772 80.5,-772"/>
<text text-anchor="middle" x="55" y="-760" font-family="sans" font-size="10.00">INPUT:</text>
<text text-anchor="middle" x="55" y="-749" font-family="sans" font-size="10.00">sampleID</text>
<text text-anchor="middle" x="55" y="-738" font-family="sans" font-size="10.00">fastq</text>
<text text-anchor="middle" x="55" y="-727" font-family="sans" font-size="10.00">ref_genome</text>
</g>
<!-- 9&#45;&gt;7 -->
<g id="edge1" class="edge">
<title>9&#45;&gt;7</title>
<path fill="none" stroke="grey" stroke-width="2" d="M55,-719.89C55,-711.84 55,-702.88 55,-694.66"/>
<polygon fill="grey" stroke="grey" stroke-width="2" points="58.5,-694.41 55,-684.41 51.5,-694.41 58.5,-694.41"/>
</g>
</g>
</svg>
